<?xml version="1.0" encoding="UTF-8"?>
<!-- Created with Inkscape (http://www.inkscape.org/) -->
<svg width="138.98" height="122.46" version="1.1" viewBox="0 0 13.899 12.248" xmlns="http://www.w3.org/2000/svg" xmlns:cc="http://creativecommons.org/ns#" xmlns:dc="http://purl.org/dc/elements/1.1/" xmlns:osb="http://www.openswatchbook.org/uri/2009/osb" xmlns:rdf="http://www.w3.org/1999/02/22-rdf-syntax-ns#">
 <metadata>
  <rdf:RDF>
   <cc:Work rdf:about="">
    <dc:format>image/svg+xml</dc:format>
    <dc:type rdf:resource="http://purl.org/dc/dcmitype/StillImage"/>
    <dc:title/>
   </cc:Work>
  </rdf:RDF>
 </metadata>
 <g transform="translate(0 -100.02)">
  <g fill="none">
   <rect x=".74606" y="104.01" width="12.458" height="5.7774" rx=".9512" ry=".67932" stroke="#c01700" stroke-width="1.1328"/>
   <path d="m3.9264 111.53h6.0969" stroke="#c10000" stroke-width="1.0583"/>
   <path d="m6.9749 111.96v-2.4024" stroke="#c10000" stroke-width="1.0583"/>
  </g>
  <g transform="scale(.95267 1.0497)" fill="#c10000" stroke-width=".30491px" style="font-feature-settings:normal;font-variant-caps:normal;font-variant-ligatures:normal;font-variant-numeric:normal" aria-label="Go2TV">
   <path d="m3.9456 102.79q-0.21486 0.10445-0.44613 0.15667-0.23127 0.0522-0.47746 0.0522-0.55654 0-0.88181-0.31035-0.32527-0.31184-0.32527-0.8445 0-0.53864 0.33124-0.8475 0.33124-0.30885 0.90717-0.30885 0.22232 0 0.42524 0.0418 0.20441 0.0418 0.38495 0.12384v0.46105q-0.18651-0.10593-0.37152-0.15816-0.18352-0.0522-0.36854-0.0522-0.34317 0-0.52968 0.19248-0.18502 0.19098-0.18502 0.54759 0 0.35361 0.17905 0.54609 0.17905 0.19248 0.50879 0.19248 0.089524 0 0.16562-0.0105 0.077587-0.0119 0.13876-0.0358v-0.4327h-0.35064v-0.38495h0.89524z" style="font-feature-settings:normal;font-variant-caps:normal;font-variant-ligatures:normal;font-variant-numeric:normal"/>
   <path d="m5.2213 101.62q-0.17756 0-0.27156 0.12832-0.092508 0.12683-0.092508 0.36705t0.092508 0.36854q0.094 0.12682 0.27156 0.12682 0.17457 0 0.26708-0.12682 0.092508-0.12832 0.092508-0.36854t-0.092508-0.36705q-0.092508-0.12832-0.26708-0.12832zm0-0.38196q0.43121 0 0.67292 0.23276 0.24321 0.23276 0.24321 0.64457t-0.24321 0.64457q-0.24171 0.23276-0.67292 0.23276-0.4327 0-0.6774-0.23276-0.24321-0.23276-0.24321-0.64457t0.24321-0.64457q0.2447-0.23276 0.6774-0.23276z" style="font-feature-settings:normal;font-variant-caps:normal;font-variant-ligatures:normal;font-variant-numeric:normal"/>
   <path d="m7.1506 102.53h0.98029v0.42225h-1.6189v-0.42225l0.81317-0.71768q0.10892-0.0985 0.16114-0.19248 0.052222-0.094 0.052222-0.19546 0-0.15667-0.10594-0.25216-0.10444-0.0955-0.27902-0.0955-0.13429 0-0.29394 0.0582-0.15965 0.0567-0.34168 0.17009v-0.48939q0.19397-0.0642 0.38346-0.097 0.18949-0.0343 0.37152-0.0343 0.39987 0 0.6207 0.17606 0.22232 0.17606 0.22232 0.49089 0 0.18203-0.094 0.34019-0.094 0.15667-0.3954 0.42076z" style="font-feature-settings:normal;font-variant-caps:normal;font-variant-ligatures:normal;font-variant-numeric:normal"/>
   <path d="m8.4099 100.73h2.0531v0.43419h-0.73857v1.7935h-0.57444v-1.7935h-0.74006z" style="font-feature-settings:normal;font-variant-caps:normal;font-variant-ligatures:normal;font-variant-numeric:normal"/>
   <path d="m10.493 100.73h0.57743l0.59086 1.6443 0.58936-1.6443h0.57743l-0.82511 2.2276h-0.68486z" style="font-feature-settings:normal;font-variant-caps:normal;font-variant-ligatures:normal;font-variant-numeric:normal"/>
  </g>
  <flowRoot fill="#000000" font-family="sans-serif" font-size="53.333px" letter-spacing="0px" stroke-width="1px" word-spacing="0px" style="font-feature-settings:normal;font-variant-caps:normal;font-variant-ligatures:normal;font-variant-numeric:normal;line-height:125%" xml:space="preserve"><flowRegion><rect x="90.914" y="126" width="373.25" height="207.08"/></flowRegion><flowPara/></flowRoot>
  <g fill="none" stroke="#c10000" stroke-width=".52917">
   <path d="m4.4644 101.49c0.53005-0.49583 1.2101-0.8292 1.9267-0.94452 0.71659-0.11532 1.4669-0.0121 2.1257 0.29238 0.35475 0.16396 0.68307 0.38496 0.9685 0.65191"/>
   <path d="m5.0548 102.1c0.4054-0.37922 0.92549-0.63418 1.4736-0.72237 0.54806-0.0882 1.1219-9e-3 1.6258 0.22361 0.27132 0.1254 0.52243 0.29441 0.74073 0.49858"/>
   <path d="m5.6642 102.76c0.2498-0.29755 0.60379-0.50586 0.9852-0.57975 0.38141-0.0739 0.78758-0.0129 1.1304 0.16988 0.19261 0.10266 0.36528 0.24257 0.50563 0.40972"/>
  </g>
 </g>
</svg>
