<?xml version="1.0" encoding="utf-8"?>
<!-- Generator: Adobe Illustrator 26.4.1, SVG Export Plug-In . SVG Version: 6.00 Build 0)  -->
<svg version="1.1" id="Layer_1" xmlns="http://www.w3.org/2000/svg" xmlns:xlink="http://www.w3.org/1999/xlink" x="0px" y="0px"
	 viewBox="0 0 5000 3753.5" style="enable-background:new 0 0 5000 3753.5;" xml:space="preserve">
<style type="text/css">
	.st0{fill:#0E6AB4;}
	.st1{fill:#9B3BDD;}
	.st2{opacity:0.3;fill-rule:evenodd;clip-rule:evenodd;fill:#0E6AB2;}
	.st3{opacity:0.7;fill-rule:evenodd;clip-rule:evenodd;fill:url(#SVGID_1_);}
	.st4{opacity:0.7;fill-rule:evenodd;clip-rule:evenodd;fill:url(#SVGID_00000029046040898124588740000001683222004198847648_);}
	.st5{opacity:0.7;fill-rule:evenodd;clip-rule:evenodd;fill:url(#SVGID_00000127029156318695218250000003327395954703514274_);}
	.st6{opacity:0.1;fill-rule:evenodd;clip-rule:evenodd;fill:#FFFFFF;}
	.st7{fill:url(#tv_00000042717097837322468730000008805213007688031910_);}
</style>
<g id="Subtitle">
	<path class="st0" d="M717.7,3574.4V3752h-18v-142l-69.7,119.5h-8.9l-69.7-118.7V3752h-18v-177.5h15.5l77.1,131.6l76.3-131.6H717.7z
		"/>
	<path class="st0" d="M913.7,3735.7v16.2H788.1v-177.5h121.7v16.2h-103v63.2h91.8v16h-91.8v65.9H913.7z"/>
	<path class="st0" d="M970.4,3574.4h72.3c56.8,0,95.1,36.5,95.1,88.8s-38.3,88.8-95.1,88.8h-72.3V3574.4z M1041.7,3735.7
		c47.2,0,77.6-29.9,77.6-72.5c0-42.6-30.4-72.5-77.6-72.5h-52.5v145.1H1041.7z"/>
	<path class="st0" d="M1192.5,3574.4h18.8V3752h-18.8V3574.4z"/>
	<path class="st0" d="M1393.1,3704.5h-98.9l-21.3,47.4h-19.5l81.2-177.5h18.5l81.2,177.5h-19.8L1393.1,3704.5z M1386.3,3689.3
		l-42.6-95.4l-42.6,95.4H1386.3z"/>
	<path class="st0" d="M1539.6,3663.2c0-52,39.6-90.3,93.1-90.3c25.9,0,49.2,8.6,64.9,25.9l-11.9,11.9c-14.5-14.7-32.2-21-52.5-21
		c-42.9,0-75.1,31.4-75.1,73.6c0,42.1,32.2,73.5,75.1,73.5c20.3,0,38-6.3,52.5-21.3l11.9,11.9c-15.7,17.3-39.1,26.1-65.2,26.1
		C1579.2,3753.5,1539.6,3715.2,1539.6,3663.2z"/>
	<path class="st0" d="M1857.1,3704.5h-98.9l-21.3,47.4h-19.5l81.2-177.5h18.5l81.2,177.5h-19.8L1857.1,3704.5z M1850.3,3689.3
		l-42.6-95.4l-42.6,95.4H1850.3z"/>
	<path class="st0" d="M1923.3,3730.4l7.4-14.5c12.7,12.4,35.2,21.6,58.6,21.6c33.2,0,47.7-13.9,47.7-31.4
		c0-48.7-109.3-18.8-109.3-84.5c0-26.1,20.3-48.7,65.4-48.7c20.1,0,40.9,5.8,55.1,15.7l-6.4,15c-15.2-9.9-33-14.7-48.7-14.7
		c-32.5,0-46.9,14.4-46.9,32.2c0,48.7,109.3,19.3,109.3,84c0,26.1-20.8,48.4-66.2,48.4C1962.6,3753.5,1936.5,3744.1,1923.3,3730.4z"
		/>
	<path class="st0" d="M2140.8,3590.7h-62.4v-16.2H2222v16.2h-62.4V3752h-18.8V3590.7z"/>
	<path class="st0" d="M2264.5,3574.4h18.8V3752h-18.8V3574.4z"/>
	<path class="st0" d="M2502.2,3574.4V3752h-15.5l-114.1-144.1V3752h-18.8v-177.5h15.5l114.4,144.1v-144.1H2502.2z"/>
	<path class="st0" d="M2697.6,3663.2h18v67.7c-16.7,15-40.6,22.6-65.2,22.6c-54,0-93.6-38.3-93.6-90.3c0-52,39.6-90.3,93.8-90.3
		c26.9,0,50.2,8.6,65.9,25.6l-11.7,11.9c-15-14.7-32.7-20.8-53.5-20.8c-43.9,0-76.1,31.2-76.1,73.6c0,42.1,32.2,73.5,75.9,73.5
		c17,0,32.7-3.8,46.4-13.7V3663.2z"/>
	<path class="st0" d="M3044.8,3574.4V3752h-18v-142l-69.7,119.5h-8.9l-69.8-118.7V3752h-18v-177.5h15.5l77.1,131.6l76.3-131.6
		H3044.8z"/>
	<path class="st0" d="M3226.5,3704.5h-98.9l-21.3,47.4h-19.5l81.2-177.5h18.5l81.2,177.5h-19.8L3226.5,3704.5z M3219.7,3689.3
		l-42.6-95.4l-42.6,95.4H3219.7z"/>
	<path class="st0" d="M3309.7,3574.4h72.3c56.8,0,95.1,36.5,95.1,88.8s-38.3,88.8-95.1,88.8h-72.3V3574.4z M3380.9,3735.7
		c47.2,0,77.6-29.9,77.6-72.5c0-42.6-30.4-72.5-77.6-72.5h-52.5v145.1H3380.9z"/>
	<path class="st0" d="M3657.3,3735.7v16.2h-125.5v-177.5h121.7v16.2h-103v63.2h91.8v16h-91.8v65.9H3657.3z"/>
	<path class="st0" d="M3918.8,3735.7v16.2h-125.5v-177.5H3915v16.2h-103v63.2h91.8v16H3812v65.9H3918.8z"/>
	<path class="st0" d="M4086.9,3704.5h-98.9l-21.3,47.4h-19.5l81.2-177.5h18.5l81.2,177.5h-19.8L4086.9,3704.5z M4080,3689.3
		l-42.6-95.4l-42.6,95.4H4080z"/>
	<path class="st0" d="M4153,3730.4l7.4-14.5c12.7,12.4,35.2,21.6,58.6,21.6c33.2,0,47.7-13.9,47.7-31.4
		c0-48.7-109.3-18.8-109.3-84.5c0-26.1,20.3-48.7,65.4-48.7c20.1,0,40.9,5.8,55.1,15.7l-6.4,15c-15.2-9.9-33-14.7-48.7-14.7
		c-32.5,0-46.9,14.4-46.9,32.2c0,48.7,109.3,19.3,109.3,84c0,26.1-20.8,48.4-66.2,48.4C4192.3,3753.5,4166.2,3744.1,4153,3730.4z"/>
	<path class="st0" d="M4395.7,3690.6v61.4h-18.5v-61.4l-71-116.2h20l60.9,99.7l60.9-99.7h18.8L4395.7,3690.6z"/>
</g>
<g id="Title">
	<path class="st1" d="M757.4,2670.2h216.8v416.1c-112.8,85-268.1,130.4-414.6,130.4C237.3,3216.6,0,2995.4,0,2686.3
		c0-309.1,237.3-530.4,564-530.4c180.2,0,329.6,61.5,429.2,177.3l-152.4,140.6c-74.7-79.1-161.1-115.7-265.2-115.7
		c-199.2,0-335.5,133.3-335.5,328.2c0,191.9,136.2,328.2,332.6,328.2c64.5,0,124.5-11.7,184.6-44V2670.2z"/>
	<path class="st1" d="M1092.9,2686.3c0-304.7,237.3-530.4,561.1-530.4c322.3,0,561.1,224.1,561.1,530.4
		c0,306.2-238.8,530.3-561.1,530.3C1330.2,3216.6,1092.9,2991,1092.9,2686.3z M1974.8,2686.3c0-194.9-137.7-328.2-320.8-328.2
		s-320.8,133.3-320.8,328.2c0,194.8,137.7,328.2,320.8,328.2S1974.8,2881.1,1974.8,2686.3z"/>
	<path class="st1" d="M3044.2,3005.7V3199h-775v-153.8l395.5-373.6c90.8-86.4,107-139.2,107-189c0-80.6-55.7-127.5-164.1-127.5
		c-87.9,0-162.6,33.7-212.4,102.6l-172.9-111.3c79.1-115.7,222.7-190.5,407.3-190.5c228.5,0,380.9,117.2,380.9,303.3
		c0,99.6-27.8,190.4-171.4,323.8l-235.9,222.7H3044.2z"/>
	<path class="st1" d="M3376.7,2366.9h-328.2v-193.4h893.7v193.4h-328.2V3199h-237.3V2366.9z"/>
	<path class="st1" d="M5000,2173.5L4556.1,3199h-234.4l-442.4-1025.5h256.4l312,732.5l316.4-732.5H5000z"/>
</g>
<g id="TV">
	<path id="shadow_00000152949777291120444690000016310659464722658965_" class="st2" d="M2661.9,1896.1
		c-398.4,0-721.3,17.2-721.3,38.5c0,21.3,322.9,38.5,721.3,38.5s721.3-17.2,721.3-38.5C3383.1,1913.3,3060.2,1896.1,2661.9,1896.1z"
		/>
	<linearGradient id="SVGID_1_" gradientUnits="userSpaceOnUse" x1="2548.6304" y1="1399.2271" x2="2717.6926" y2="1399.2271">
		<stop  offset="0" style="stop-color:#993BDB"/>
		<stop  offset="0.2087" style="stop-color:#8143D4"/>
		<stop  offset="0.6467" style="stop-color:#4458C2"/>
		<stop  offset="1" style="stop-color:#0E6AB2"/>
	</linearGradient>
	<path class="st3" d="M2601.8,1320.7c-43.3,17.3-64.5,66.5-47.2,109.8c17.3,43.3,66.5,64.5,109.8,47.2
		c43.3-17.3,64.5-66.5,47.2-109.8C2694.3,1324.6,2645.2,1303.4,2601.8,1320.7z"/>
	
		<linearGradient id="SVGID_00000051365145825105389340000016557957498643308713_" gradientUnits="userSpaceOnUse" x1="2229.1067" y1="810.511" x2="2567.2312" y2="810.511">
		<stop  offset="0" style="stop-color:#993BDB"/>
		<stop  offset="0.2087" style="stop-color:#8143D4"/>
		<stop  offset="0.6467" style="stop-color:#4458C2"/>
		<stop  offset="1" style="stop-color:#0E6AB2"/>
	</linearGradient>
	
		<path style="opacity:0.7;fill-rule:evenodd;clip-rule:evenodd;fill:url(#SVGID_00000051365145825105389340000016557957498643308713_);" d="
		M2335.5,653.5c-86.7,34.6-128.9,132.9-94.3,219.6c34.6,86.7,132.9,128.9,219.6,94.3c86.7-34.6,128.9-132.9,94.3-219.6
		C2520.5,661.2,2422.2,618.9,2335.5,653.5z"/>
	
		<linearGradient id="SVGID_00000108298686308777688430000015871538595859233449_" gradientUnits="userSpaceOnUse" x1="2404.5347" y1="1144.1167" x2="2658.1279" y2="1144.1167">
		<stop  offset="0" style="stop-color:#993BDB"/>
		<stop  offset="0.2087" style="stop-color:#8143D4"/>
		<stop  offset="0.6467" style="stop-color:#4458C2"/>
		<stop  offset="1" style="stop-color:#0E6AB2"/>
	</linearGradient>
	
		<path style="opacity:0.7;fill-rule:evenodd;clip-rule:evenodd;fill:url(#SVGID_00000108298686308777688430000015871538595859233449_);" d="
		M2484.3,1026.4c-65,26-96.7,99.7-70.7,164.7c26,65,99.7,96.7,164.7,70.7c65-26,96.7-99.7,70.7-164.7
		C2623.1,1032.1,2549.4,1000.4,2484.3,1026.4z"/>
	<path class="st6" d="M2555.2,747.9c-34.6-86.7-132.9-128.9-219.6-94.3c-67.7,27-108.1,92.9-106.1,161.8c8.5-5.3,17.4-10,27-13.8
		c86.7-34.6,185,7.6,219.6,94.3c7.6,19,11.3,38.5,11.8,57.9C2555.8,911.2,2585.9,825,2555.2,747.9z"/>
	<path class="st6" d="M2649.1,1097.2c-26-65.1-99.8-96.8-164.8-70.8c-50.8,20.3-81.1,69.7-79.7,121.4c6.3-4,13.1-7.5,20.2-10.4
		c65.1-26,138.9,5.7,164.8,70.8c5.7,14.3,8.5,28.9,8.9,43.4C2649.6,1219.7,2672.2,1155.1,2649.1,1097.2z"/>
	<path class="st6" d="M2711.7,1367.9c-17.3-43.4-66.5-64.5-109.9-47.2c-33.9,13.5-54.1,46.5-53.1,80.9c4.2-2.6,8.7-5,13.5-6.9
		c43.4-17.3,92.6,3.8,109.9,47.2c3.8,9.5,5.6,19.3,5.9,29C2712,1449.6,2727.1,1406.5,2711.7,1367.9z"/>
	
		<linearGradient id="tv_00000141449102827904000610000013955715412886227600_" gradientUnits="userSpaceOnUse" x1="1616.0726" y1="974.7764" x2="3383.9272" y2="974.7764">
		<stop  offset="0" style="stop-color:#993BDB"/>
		<stop  offset="0.2087" style="stop-color:#8143D4"/>
		<stop  offset="0.6467" style="stop-color:#4458C2"/>
		<stop  offset="1" style="stop-color:#0E6AB2"/>
	</linearGradient>
	
		<path id="tv_00000044898770208078738810000010935178776622704307_" style="fill:url(#tv_00000141449102827904000610000013955715412886227600_);" d="
		M2564,209.8l-258.1,103l91.8-213.7c15.5-36-1.2-77.8-37.2-93.3c-36.1-15.5-77.8,1.2-93.3,37.2l-92.8,216l-216-92.8
		c-36.1-15.5-77.8,1.2-93.3,37.2c-15.5,36,1.2,77.8,37.2,93.3l213.7,91.8l-251.7,100.5c-202,80.6-300.7,310.6-220.1,512.6
		l279.3,699.7c80.6,202,310.6,300.7,512.6,220.1l699.7-279.3c202-80.6,300.7-310.6,220.1-512.6l-279.3-699.7
		C2995.9,227.9,2766,129.2,2564,209.8z M3223.9,1182.3c51.6,129.2-11.6,276.4-140.8,327.9l-699.7,279.3
		c-129.2,51.6-276.4-11.6-327.9-140.8L1776.1,949c-51.6-129.2,11.6-276.4,140.8-327.9l699.7-279.3
		c129.2-51.6,276.4,11.6,327.9,140.8L3223.9,1182.3z"/>
</g>
</svg>
