<?xml version="1.0" encoding="UTF-8"?>
<!-- Created with Inkscape (http://www.inkscape.org/) -->
<svg width="140" height="140" version="1.1" viewBox="0 0 14.001 14.001" xmlns="http://www.w3.org/2000/svg" xmlns:cc="http://creativecommons.org/ns#" xmlns:dc="http://purl.org/dc/elements/1.1/" xmlns:osb="http://www.openswatchbook.org/uri/2009/osb" xmlns:rdf="http://www.w3.org/1999/02/22-rdf-syntax-ns#">
 <metadata>
  <rdf:RDF>
   <cc:Work rdf:about="">
    <dc:format>image/svg+xml</dc:format>
    <dc:type rdf:resource="http://purl.org/dc/dcmitype/StillImage"/>
    <dc:title/>
   </cc:Work>
  </rdf:RDF>
 </metadata>
 <g transform="translate(0 -98.262)">
  <g fill="none" stroke-width="1.7467">
   <rect x="1.5524" y="99.484" width="10.927" height="8.4199" rx=".8343" ry=".99003" stroke="#c01700"/>
   <path d="m3.4575 111.16h7.1163" stroke="#c10000" stroke-linecap="round" stroke-linejoin="bevel"/>
   <path d="m7.0157 111.64v-3.8694" stroke="#c10000"/>
  </g>
  <flowRoot transform="matrix(1.4411 0 0 1.4411 -3.0503 -50.407)" fill="#000000" font-family="sans-serif" font-size="53.333px" letter-spacing="0px" stroke-width="1px" word-spacing="0px" style="font-feature-settings:normal;font-variant-caps:normal;font-variant-ligatures:normal;font-variant-numeric:normal;line-height:125%" xml:space="preserve"><flowRegion><rect x="90.914" y="126" width="373.25" height="207.08"/></flowRegion><flowPara/></flowRoot>
  <g fill="none" stroke="#c10000" stroke-width=".93159">
   <path d="m3.2879 102.89c0.81514-0.68987 1.8253-1.1468 2.8816-1.3034s2.1556-0.0125 3.1358 0.41118c0.51966 0.2246 1.006 0.52619 1.4381 0.89188"/>
   <path d="m4.3695 104.24c0.57864-0.48971 1.2957-0.81404 2.0456-0.92522 0.74985-0.11118 1.5302-9e-3 2.226 0.29188 0.36889 0.15944 0.71411 0.37352 1.0209 0.63311"/>
   <path d="m5.5678 105.58c0.29852-0.24968 0.66267-0.42018 1.0456-0.48957 0.38294-0.0694 0.78376-0.0375 1.1509 0.0916 0.25436 0.0894 0.49246 0.22488 0.6993 0.39784"/>
  </g>
 </g>
</svg>
