<?xml version="1.0" encoding="UTF-8" standalone="no"?>
<!-- Generator: Adobe Illustrator 26.4.1, SVG Export Plug-In . SVG Version: 6.00 Build 0)  -->

<svg
   version="1.1"
   id="Layer_1"
   x="0px"
   y="0px"
   viewBox="0 0 5000 3753.5"
   style="enable-background:new 0 0 5000 3753.5;"
   xml:space="preserve"
   sodipodi:docname="go2tv-logo-color.svg"
   inkscape:version="1.2.2 (b0a8486541, 2022-12-01)"
   xmlns:inkscape="http://www.inkscape.org/namespaces/inkscape"
   xmlns:sodipodi="http://sodipodi.sourceforge.net/DTD/sodipodi-0.dtd"
   xmlns="http://www.w3.org/2000/svg"
   xmlns:svg="http://www.w3.org/2000/svg"><defs
   id="defs110" /><sodipodi:namedview
   id="namedview108"
   pagecolor="#ffffff"
   bordercolor="#666666"
   borderopacity="1.0"
   inkscape:showpageshadow="2"
   inkscape:pageopacity="0.0"
   inkscape:pagecheckerboard="0"
   inkscape:deskcolor="#d1d1d1"
   showgrid="false"
   inkscape:zoom="0.17783637"
   inkscape:cx="1029.0359"
   inkscape:cy="1360.8015"
   inkscape:window-width="1854"
   inkscape:window-height="1131"
   inkscape:window-x="0"
   inkscape:window-y="0"
   inkscape:window-maximized="1"
   inkscape:current-layer="TV" />
<style
   type="text/css"
   id="style2">
	.st0{fill:#0E6AB4;}
	.st1{fill:#9B3BDD;}
	.st2{opacity:0.3;fill-rule:evenodd;clip-rule:evenodd;fill:#0E6AB2;}
	.st3{opacity:0.7;fill-rule:evenodd;clip-rule:evenodd;fill:url(#SVGID_1_);}
	.st4{opacity:0.7;fill-rule:evenodd;clip-rule:evenodd;fill:url(#SVGID_00000029046040898124588740000001683222004198847648_);}
	.st5{opacity:0.7;fill-rule:evenodd;clip-rule:evenodd;fill:url(#SVGID_00000127029156318695218250000003327395954703514274_);}
	.st6{opacity:0.1;fill-rule:evenodd;clip-rule:evenodd;fill:#FFFFFF;}
	.st7{fill:url(#tv_00000042717097837322468730000008805213007688031910_);}
</style>


<g
   id="TV"
   transform="translate(58.524182,760.06884)">
	
	<linearGradient
   id="SVGID_1_"
   gradientUnits="userSpaceOnUse"
   x1="2548.6304"
   y1="1399.2271"
   x2="2717.6926"
   y2="1399.2271">
		<stop
   offset="0"
   style="stop-color:#ff00ff;stop-opacity:1;"
   id="stop57" />
		
		
		<stop
   offset="1"
   style="stop-color:#00c0c0;stop-opacity:1;"
   id="stop63" />
	</linearGradient>
	<path
   class="st3"
   d="m 2601.8,1320.7 c -43.3,17.3 -64.5,66.5 -47.2,109.8 17.3,43.3 66.5,64.5 109.8,47.2 43.3,-17.3 64.5,-66.5 47.2,-109.8 -17.3,-43.3 -66.4,-64.5 -109.8,-47.2 z"
   id="path66"
   style="fill:url(#SVGID_1_)"
   inkscape:export-filename="path66.png"
   inkscape:export-xdpi="115.87919"
   inkscape:export-ydpi="115.87919" />
	
		<linearGradient
   id="SVGID_00000051365145825105389340000016557957498643308713_"
   gradientUnits="userSpaceOnUse"
   x1="2229.1067"
   y1="810.51099"
   x2="2567.2312"
   y2="810.51099">
		<stop
   offset="0"
   style="stop-color:#ff00ff;stop-opacity:1;"
   id="stop68" />
		
		
		<stop
   offset="1"
   style="stop-color:#00c0c0;stop-opacity:1;"
   id="stop74" />
	</linearGradient>
	
		<path
   style="clip-rule:evenodd;opacity:0.7;fill:url(#SVGID_00000051365145825105389340000016557957498643308713_);fill-rule:evenodd"
   d="m 2335.5,653.5 c -86.7,34.6 -128.9,132.9 -94.3,219.6 34.6,86.7 132.9,128.9 219.6,94.3 86.7,-34.6 128.9,-132.9 94.3,-219.6 -34.6,-86.6 -132.9,-128.9 -219.6,-94.3 z"
   id="path77" />
	
		<linearGradient
   id="SVGID_00000108298686308777688430000015871538595859233449_"
   gradientUnits="userSpaceOnUse"
   x1="2404.5347"
   y1="1144.1167"
   x2="2658.1279"
   y2="1144.1167">
		<stop
   offset="0"
   style="stop-color:#ff00ff;stop-opacity:1;"
   id="stop79" />
		
		
		<stop
   offset="1"
   style="stop-color:#00c0c0;stop-opacity:1;"
   id="stop85" />
	</linearGradient>
	
		<path
   style="clip-rule:evenodd;opacity:0.7;fill:url(#SVGID_00000108298686308777688430000015871538595859233449_);fill-rule:evenodd"
   d="m 2484.3,1026.4 c -65,26 -96.7,99.7 -70.7,164.7 26,65 99.7,96.7 164.7,70.7 65,-26 96.7,-99.7 70.7,-164.7 -25.9,-65 -99.6,-96.7 -164.7,-70.7 z"
   id="path88" />
	<path
   class="st6"
   d="m 2555.2,747.9 c -34.6,-86.7 -132.9,-128.9 -219.6,-94.3 -67.7,27 -108.1,92.9 -106.1,161.8 8.5,-5.3 17.4,-10 27,-13.8 86.7,-34.6 185,7.6 219.6,94.3 7.6,19 11.3,38.5 11.8,57.9 67.9,-42.6 98,-128.8 67.3,-205.9 z"
   id="path90" />
	<path
   class="st6"
   d="m 2649.1,1097.2 c -26,-65.1 -99.8,-96.8 -164.8,-70.8 -50.8,20.3 -81.1,69.7 -79.7,121.4 6.3,-4 13.1,-7.5 20.2,-10.4 65.1,-26 138.9,5.7 164.8,70.8 5.7,14.3 8.5,28.9 8.9,43.4 51.1,-31.9 73.7,-96.5 50.6,-154.4 z"
   id="path92" />
	<path
   class="st6"
   d="m 2711.7,1367.9 c -17.3,-43.4 -66.5,-64.5 -109.9,-47.2 -33.9,13.5 -54.1,46.5 -53.1,80.9 4.2,-2.6 8.7,-5 13.5,-6.9 43.4,-17.3 92.6,3.8 109.9,47.2 3.8,9.5 5.6,19.3 5.9,29 34,-21.3 49.1,-64.4 33.7,-103 z"
   id="path94"
   style="fill:#00e2e2;fill-opacity:1" />
	
		<linearGradient
   id="tv_00000141449102827904000610000013955715412886227600_"
   gradientUnits="userSpaceOnUse"
   x1="1616.0726"
   y1="974.77643"
   x2="3383.9272"
   y2="974.77643">
		<stop
   offset="0"
   style="stop-color:#ff00ff;stop-opacity:1;"
   id="stop96" />
		
		
		<stop
   offset="1"
   style="stop-color:#00e2e2;stop-opacity:1;"
   id="stop102" />
	</linearGradient>
	
		<path
   id="tv_00000044898770208078738810000010935178776622704307_"
   style="fill:url(#tv_00000141449102827904000610000013955715412886227600_)"
   d="m 2564,209.8 -258.1,103 91.8,-213.7 c 15.5,-36 -1.2,-77.8 -37.2,-93.3 -36.1,-15.5 -77.8,1.2 -93.3,37.2 l -92.8,216 -216,-92.8 c -36.1,-15.5 -77.8,1.2 -93.3,37.2 -15.5,36 1.2,77.8 37.2,93.3 L 2116,388.5 1864.3,489 c -202,80.6 -300.7,310.6 -220.1,512.6 l 279.3,699.7 c 80.6,202 310.6,300.7 512.6,220.1 l 699.7,-279.3 c 202,-80.6 300.7,-310.6 220.1,-512.6 L 3076.6,429.8 C 2995.9,227.9 2766,129.2 2564,209.8 Z m 659.9,972.5 c 51.6,129.2 -11.6,276.4 -140.8,327.9 l -699.7,279.3 c -129.2,51.6 -276.4,-11.6 -327.9,-140.8 L 1776.1,949 c -51.6,-129.2 11.6,-276.4 140.8,-327.9 l 699.7,-279.3 c 129.2,-51.6 276.4,11.6 327.9,140.8 z"
   inkscape:export-filename="path67.png"
   inkscape:export-xdpi="27.802319"
   inkscape:export-ydpi="27.802319" />
</g>
</svg>
